<svg width="183" height="195" viewBox="0 0 183 195" fill="none" xmlns="http://www.w3.org/2000/svg">
<mask id="mask0_1330_5378" style="mask-type:alpha" maskUnits="userSpaceOnUse" x="0" y="0" width="183" height="195">
<rect x="0.802734" y="0.722656" width="182" height="194" fill="#D9D9D9"/>
</mask>
<g mask="url(#mask0_1330_5378)">
<path d="M82.5867 -26.1345L78.6309 -26.1289L78.7968 93.3081L82.7526 93.3025L82.5867 -26.1345Z" fill="#F7E2CF"/>
<path d="M69.5017 -26.1384L65.5459 -26.1328L65.7118 93.2934L69.6676 93.2879L69.5017 -26.1384Z" fill="#F7E2CF"/>
<path d="M56.3845 -26.1188L52.4287 -26.1133L52.5946 93.313L56.5504 93.3074L56.3845 -26.1188Z" fill="#F7E2CF"/>
<path d="M43.2859 -26.0993L39.3301 -26.0938L39.496 93.3325L43.4518 93.3269L43.2859 -26.0993Z" fill="#F7E2CF"/>
<path d="M30.1794 -26.0798L26.2236 -26.0742L26.3895 93.3628L30.3453 93.3572L30.1794 -26.0798Z" fill="#F7E2CF"/>
<path d="M17.072 -26.0641L13.1162 -26.0586L13.2821 93.3676L17.2379 93.3621L17.072 -26.0641Z" fill="#F7E2CF"/>
<path d="M3.96363 -26.0446L0.0078125 -26.0391L0.173707 93.3872L4.12952 93.3816L3.96363 -26.0446Z" fill="#F7E2CF"/>
<path d="M202.423 77.2L81.2471 77.4551L81.2554 81.4313L202.431 81.1762L202.423 77.2Z" fill="#F7E2CF"/>
<path d="M202.394 64.2898L81.2295 64.5449L81.2378 68.5211L202.403 68.2661L202.394 64.2898Z" fill="#F7E2CF"/>
<path d="M202.401 51.364L81.2148 51.6191L81.2231 55.5954L202.409 55.3402L202.401 51.364Z" fill="#F7E2CF"/>
<path d="M202.418 38.4087L81.2422 38.6426L81.2498 42.6188L202.426 42.3849L202.418 38.4087Z" fill="#F7E2CF"/>
<path d="M202.357 25.5183L81.1709 25.7734L81.1792 29.7496L202.366 29.4945L202.357 25.5183Z" fill="#F7E2CF"/>
<path d="M202.379 12.565L81.2031 12.7988L81.2107 16.7751L202.386 16.5412L202.379 12.565Z" fill="#F7E2CF"/>
<path d="M202.325 -0.315647L81.1494 -0.0605469L81.1577 3.91565L202.333 3.66055L202.325 -0.315647Z" fill="#F7E2CF"/>
<path d="M111.666 80.2405L107.71 80.2461L107.876 199.683L111.832 199.678L111.666 80.2405Z" fill="#F7E2CF"/>
<path d="M124.774 80.2308L120.818 80.2363L120.984 199.673L124.94 199.668L124.774 80.2308Z" fill="#F7E2CF"/>
<path d="M137.902 80.18L133.946 80.1855L134.112 199.612L138.068 199.606L137.902 80.18Z" fill="#F7E2CF"/>
<path d="M147.197 199.641L147.026 80.2148H150.982L151.153 199.641H147.197Z" fill="#F7E2CF"/>
<path d="M164.119 80.1546L160.163 80.1602L160.329 199.586L164.285 199.581L164.119 80.1546Z" fill="#F7E2CF"/>
<path d="M177.205 80.1683L173.249 80.1738L173.415 199.6L177.371 199.594L177.205 80.1683Z" fill="#F7E2CF"/>
<path d="M109.153 92.1627L-12.0117 92.3965L-12.0041 96.3727L109.161 96.1389L109.153 92.1627Z" fill="#F7E2CF"/>
<path d="M109.178 105.079L-11.998 105.312L-11.9905 109.289L109.185 109.055L109.178 105.079Z" fill="#F7E2CF"/>
<path d="M109.276 117.94L-11.8994 118.174L-11.8918 122.15L109.284 121.916L109.276 117.94Z" fill="#F7E2CF"/>
<path d="M109.205 130.936L-11.9707 131.17L-11.9631 135.146L109.213 134.912L109.205 130.936Z" fill="#F7E2CF"/>
<path d="M109.315 143.776L-11.8604 144.01L-11.8528 147.986L109.323 147.752L109.315 143.776Z" fill="#F7E2CF"/>
<path d="M109.245 156.78L-11.9414 157.014L-11.9338 160.99L109.253 160.756L109.245 156.78Z" fill="#F7E2CF"/>
<path d="M109.268 169.684L-11.9072 169.918L-11.8996 173.894L109.276 173.66L109.268 169.684Z" fill="#F7E2CF"/>
<path d="M109.38 182.542L-11.7959 182.775L-11.7883 186.752L109.387 186.518L109.38 182.542Z" fill="#F7E2CF"/>
<path d="M82.5935 185.164L78.6377 185.17L78.8036 304.596L82.7594 304.591L82.5935 185.164Z" fill="#F7E2CF"/>
<path d="M69.5066 185.172L65.5508 185.178L65.7167 304.604L69.6725 304.598L69.5066 185.172Z" fill="#F7E2CF"/>
<path d="M56.3992 185.178L52.4434 185.184L52.6093 304.621L56.5651 304.615L56.3992 185.178Z" fill="#F7E2CF"/>
<path d="M43.2918 185.2L39.3359 185.205L39.5018 304.642L43.4577 304.637L43.2918 185.2Z" fill="#F7E2CF"/>
<path d="M30.1843 185.217L26.2285 185.223L26.3944 304.649L30.3502 304.643L30.1843 185.217Z" fill="#F7E2CF"/>
<path d="M17.0759 185.237L13.1201 185.242L13.286 304.668L17.2418 304.663L17.0759 185.237Z" fill="#F7E2CF"/>
<path d="M3.96949 185.252L0.0136719 185.258L0.179566 304.684L4.13538 304.678L3.96949 185.252Z" fill="#F7E2CF"/>
</g>
</svg>
